<?xml version="1.0"?>
<!DOCTYPE svg PUBLIC "-//W3C//DTD SVG 1.1//EN" "http://www.w3.org/Graphics/SVG/1.1/DTD/svg11.dtd">
<svg width="275.4mm" height="346.4mm" viewBox="0 0 275.4 346.4" xmlns="http://www.w3.org/2000/svg" version="1.1">
<g id="Pocket" transform="translate(2.700000,343.700000) scale(1,-1)">
<path id="Pocket_f0000" d="M 0.0 0.0 L 270.0 0.0 L 270.0 0.0 L 0.0 0.0 L 0.0 0.0 Z " stroke="#191919" stroke-width="0.35 px" style="stroke-width:0.35;stroke-miterlimit:4;stroke-dasharray:none;fill:#cccccc;fill-rule: evenodd "/>
<path id="Pocket_f0001" d="M 0.0 341.0 L 0.0 0.0 L 0.0 0.0 L 0.0 341.0 L 0.0 341.0 Z " stroke="#191919" stroke-width="0.35 px" style="stroke-width:0.35;stroke-miterlimit:4;stroke-dasharray:none;fill:#cccccc;fill-rule: evenodd "/>
<path id="Pocket_f0002" d="M 270.0 0.0 L 270.0 341.0 L 270.0 341.0 L 270.0 0.0 L 270.0 0.0 Z " stroke="#191919" stroke-width="0.35 px" style="stroke-width:0.35;stroke-miterlimit:4;stroke-dasharray:none;fill:#cccccc;fill-rule: evenodd "/>
<circle cx="10.0" cy="333.0" r="1.5" stroke="#191919" stroke-width="0.35 px" style="stroke-width:0.35;stroke-miterlimit:4;stroke-dasharray:none;fill:#cccccc"/>
<circle cx="10.0" cy="333.0" r="1.5" stroke="#191919" stroke-width="0.35 px" style="stroke-width:0.35;stroke-miterlimit:4;stroke-dasharray:none;fill:#cccccc"/>
<path id="Pocket_f0005" d="M 270.0 341.0 L 0.0 341.0 L 0.0 341.0 L 270.0 341.0 L 270.0 341.0 Z " stroke="#191919" stroke-width="0.35 px" style="stroke-width:0.35;stroke-miterlimit:4;stroke-dasharray:none;fill:#cccccc;fill-rule: evenodd "/>
<path id="Pocket_f0006" d="M 175.0 283.0 L 175.0 283.0 L 175.0 230.0 L 175.0 230.0 L 175.0 283.0 Z " stroke="#191919" stroke-width="0.35 px" style="stroke-width:0.35;stroke-miterlimit:4;stroke-dasharray:none;fill:#cccccc;fill-rule: evenodd "/>
<path id="Pocket_f0007" d="M 235.0 283.0 A 30.0 30.0 0 0 1 175.0 283.0 L 175.0 283.0 A 30.0 30.0 0 0 0 235.0 283.0 L 235.0 283.0 Z " stroke="#191919" stroke-width="0.35 px" style="stroke-width:0.35;stroke-miterlimit:4;stroke-dasharray:none;fill:#cccccc;fill-rule: evenodd "/>
<path id="Pocket_f0008" d="M 235.0 283.0 L 235.0 283.0 L 235.0 230.0 L 235.0 230.0 L 235.0 283.0 Z " stroke="#191919" stroke-width="0.35 px" style="stroke-width:0.35;stroke-miterlimit:4;stroke-dasharray:none;fill:#cccccc;fill-rule: evenodd "/>
<path id="Pocket_f0009" d="M 175.0 230.0 A 30.0 30.0 0 1 1 235.0 230.0 L 235.0 230.0 A 30.0 30.0 0 0 0 175.0 230.0 L 175.0 230.0 Z " stroke="#191919" stroke-width="0.35 px" style="stroke-width:0.35;stroke-miterlimit:4;stroke-dasharray:none;fill:#cccccc;fill-rule: evenodd "/>
<path id="Pocket_f0010" d="M 162.0 266.0 L 162.0 266.0 L 162.0 131.0 L 162.0 131.0 L 162.0 266.0 Z " stroke="#191919" stroke-width="0.35 px" style="stroke-width:0.35;stroke-miterlimit:4;stroke-dasharray:none;fill:#cccccc;fill-rule: evenodd "/>
<path id="Pocket_f0011" d="M 162.0 131.0 L 162.0 131.0 L 18.0 131.0 L 18.0 131.0 L 162.0 131.0 Z " stroke="#191919" stroke-width="0.35 px" style="stroke-width:0.35;stroke-miterlimit:4;stroke-dasharray:none;fill:#cccccc;fill-rule: evenodd "/>
<path id="Pocket_f0012" d="M 18.0 131.0 L 18.0 131.0 L 18.0 266.0 L 18.0 266.0 L 18.0 131.0 Z " stroke="#191919" stroke-width="0.35 px" style="stroke-width:0.35;stroke-miterlimit:4;stroke-dasharray:none;fill:#cccccc;fill-rule: evenodd "/>
<path id="Pocket_f0013" d="M 18.0 266.0 L 18.0 266.0 L 162.0 266.0 L 162.0 266.0 L 18.0 266.0 Z " stroke="#191919" stroke-width="0.35 px" style="stroke-width:0.35;stroke-miterlimit:4;stroke-dasharray:none;fill:#cccccc;fill-rule: evenodd "/>
<circle cx="10.0" cy="333.0" r="1.5" stroke="#191919" stroke-width="0.35 px" style="stroke-width:0.35;stroke-miterlimit:4;stroke-dasharray:none;fill:#cccccc"/>
<circle cx="10.0" cy="270.0" r="1.5" stroke="#191919" stroke-width="0.35 px" style="stroke-width:0.35;stroke-miterlimit:4;stroke-dasharray:none;fill:#cccccc"/>
<circle cx="10.0" cy="95.0" r="1.5" stroke="#191919" stroke-width="0.35 px" style="stroke-width:0.35;stroke-miterlimit:4;stroke-dasharray:none;fill:#cccccc"/>
<circle cx="260.0" cy="95.0" r="1.5" stroke="#191919" stroke-width="0.35 px" style="stroke-width:0.35;stroke-miterlimit:4;stroke-dasharray:none;fill:#cccccc"/>
<circle cx="260.0" cy="333.0" r="1.5" stroke="#191919" stroke-width="0.35 px" style="stroke-width:0.35;stroke-miterlimit:4;stroke-dasharray:none;fill:#cccccc"/>
<circle cx="260.0" cy="270.0" r="1.5" stroke="#191919" stroke-width="0.35 px" style="stroke-width:0.35;stroke-miterlimit:4;stroke-dasharray:none;fill:#cccccc"/>
<circle cx="260.0" cy="8.0" r="1.5" stroke="#191919" stroke-width="0.35 px" style="stroke-width:0.35;stroke-miterlimit:4;stroke-dasharray:none;fill:#cccccc"/>
<circle cx="10.0" cy="8.0" r="1.5" stroke="#191919" stroke-width="0.35 px" style="stroke-width:0.35;stroke-miterlimit:4;stroke-dasharray:none;fill:#cccccc"/>
<title>Pocket</title>
</g>
</svg>